<svg xmlns="http://www.w3.org/2000/svg" width="360" height="220" view-box="0 0 360 220" preserve-aspect-ratio="xMidYMid meet"><rect x="0" y="0" width="360" height="220" fill="#ece4d0"/><line x1="18" y1="34" x2="342" y2="34" stroke="#a89e92" stroke-width="1" stroke-linecap="round"/><line x1="18" y1="62" x2="342" y2="62" stroke="#a89e92" stroke-width="1" stroke-linecap="round"/><line x1="18" y1="90" x2="101.52960750331329" y2="90" stroke="#a89e92" stroke-width="1" stroke-linecap="round"/><line x1="178.4703924966867" y1="90" x2="342" y2="90" stroke="#a89e92" stroke-width="1" stroke-linecap="round"/><line x1="18" y1="118" x2="93.11610273523871" y2="118" stroke="#a89e92" stroke-width="1" stroke-linecap="round"/><line x1="186.8838972647613" y1="118" x2="342" y2="118" stroke="#a89e92" stroke-width="1" stroke-linecap="round"/><line x1="18" y1="146" x2="342" y2="146" stroke="#a89e92" stroke-width="1" stroke-linecap="round"/><line x1="18" y1="174" x2="342" y2="174" stroke="#a89e92" stroke-width="1" stroke-linecap="round"/><line x1="18" y1="202" x2="342" y2="202" stroke="#a89e92" stroke-width="1" stroke-linecap="round"/><ellipse cx="140" cy="107" rx="34" ry="17" fill="none" stroke="#a89e92" stroke-width="1"/><ellipse cx="140" cy="107" rx="46" ry="24" fill="none" stroke="#a89e92" stroke-width="1"/><path d="M118 112 Q114 96 130 91 Q148 86 161 96 Q170 104 162 114 Q148 123 130 121 Q120 119 118 112 Z" fill="#3a342f"/><ellipse cx="160" cy="120" rx="8" ry="4" fill="#8a9a6e"/><ellipse cx="167" cy="122" rx="5" ry="3" fill="#8a9a6e"/></svg>
