<svg xmlns="http://www.w3.org/2000/svg" width="360" height="220" view-box="0 0 360 220" preserve-aspect-ratio="xMidYMid meet"><rect x="0" y="0" width="360" height="220" fill="#ece4d0"/><line x1="18" y1="30" x2="342" y2="30" stroke="#a89e92" stroke-width="1" stroke-linecap="round"/><line x1="18" y1="50" x2="342" y2="50" stroke="#a89e92" stroke-width="1" stroke-linecap="round"/><line x1="18" y1="70" x2="259.4833395016046" y2="70" stroke="#a89e92" stroke-width="1" stroke-linecap="round"/><line x1="316.5166604983954" y1="70" x2="342" y2="70" stroke="#a89e92" stroke-width="1" stroke-linecap="round"/><line x1="18" y1="90" x2="83.16709358102766" y2="90" stroke="#a89e92" stroke-width="1" stroke-linecap="round"/><line x1="196.83290641897236" y1="90" x2="342" y2="90" stroke="#a89e92" stroke-width="1" stroke-linecap="round"/><line x1="18" y1="110" x2="74.26425379222253" y2="110" stroke="#a89e92" stroke-width="1" stroke-linecap="round"/><line x1="205.73574620777748" y1="110" x2="342" y2="110" stroke="#a89e92" stroke-width="1" stroke-linecap="round"/><line x1="18" y1="130" x2="92.2838835100869" y2="130" stroke="#a89e92" stroke-width="1" stroke-linecap="round"/><line x1="187.7161164899131" y1="130" x2="342" y2="130" stroke="#a89e92" stroke-width="1" stroke-linecap="round"/><line x1="18" y1="150" x2="178.23611396773174" y2="150" stroke="#a89e92" stroke-width="1" stroke-linecap="round"/><line x1="257.76388603226826" y1="150" x2="342" y2="150" stroke="#a89e92" stroke-width="1" stroke-linecap="round"/><line x1="18" y1="170" x2="342" y2="170" stroke="#a89e92" stroke-width="1" stroke-linecap="round"/><line x1="18" y1="190" x2="342" y2="190" stroke="#a89e92" stroke-width="1" stroke-linecap="round"/><line x1="18" y1="210" x2="342" y2="210" stroke="#a89e92" stroke-width="1" stroke-linecap="round"/><ellipse cx="140" cy="107" rx="34" ry="17" fill="none" stroke="#a89e92" stroke-width="1"/><ellipse cx="140" cy="107" rx="46" ry="24" fill="none" stroke="#a89e92" stroke-width="1"/><ellipse cx="140" cy="107" rx="60" ry="32" fill="none" stroke="#a89e92" stroke-width="1"/><ellipse cx="218" cy="148" rx="24" ry="12" fill="none" stroke="#a89e92" stroke-width="1"/><ellipse cx="218" cy="148" rx="34" ry="17" fill="none" stroke="#a89e92" stroke-width="1"/><ellipse cx="288" cy="64" rx="26" ry="12" fill="none" stroke="#a89e92" stroke-width="1"/><path d="M118 112 Q114 96 130 91 Q148 86 161 96 Q170 104 162 114 Q148 123 130 121 Q120 119 118 112 Z" fill="#3a342f"/><path d="M204 150 Q203 140 214 137 Q226 134 232 141 Q237 147 231 153 Q222 158 211 156 Q205 154 204 150 Z" fill="#3a342f"/><path d="M88 157 Q88 150 96 148 Q104 146 108 151 Q111 155 106 159 Q99 162 92 160 Q89 159 88 157 Z" fill="#3a342f"/><ellipse cx="160" cy="120" rx="8" ry="4" fill="#8a9a6e"/><ellipse cx="167" cy="122" rx="5" ry="3" fill="#8a9a6e"/><ellipse cx="120" cy="122" rx="7" ry="3.5" fill="#8a9a6e"/><ellipse cx="230" cy="152" rx="6" ry="3" fill="#8a9a6e"/><ellipse cx="107" cy="158" rx="6" ry="3" fill="#8a9a6e"/><ellipse cx="284" cy="64" rx="12" ry="5" fill="#8a9a6e"/><ellipse cx="294" cy="66" rx="8" ry="4" fill="#8a9a6e"/><ellipse cx="288" cy="60" rx="7" ry="3.5" fill="#8a9a6e"/></svg>
