<svg xmlns="http://www.w3.org/2000/svg" width="360" height="220" view-box="0 0 360 220" preserve-aspect-ratio="xMidYMid meet"><rect x="0" y="0" width="360" height="220" fill="#ece4d0"/><circle cx="52" cy="60" r="2" fill="#a89e92"/><circle cx="84" cy="132" r="1.5" fill="#a89e92"/><circle cx="300" cy="52" r="2" fill="#a89e92"/><circle cx="258" cy="96" r="1.6" fill="#a89e92"/><circle cx="318" cy="150" r="2.2" fill="#a89e92"/><circle cx="196" cy="58" r="1.4" fill="#a89e92"/><circle cx="230" cy="186" r="1.8" fill="#a89e92"/><circle cx="68" cy="196" r="1.6" fill="#a89e92"/><path d="M250 150 l-3 -8 M250 150 l1 -9 M250 150 l4 -7" fill="none" stroke="#a89e92" stroke-width="1" stroke-linecap="round"/><path d="M120 84 l-3 -8 M120 84 l1 -9 M120 84 l4 -7" fill="none" stroke="#a89e92" stroke-width="1" stroke-linecap="round"/><path d="M310 196 l-3 -8 M310 196 l1 -9 M310 196 l4 -7" fill="none" stroke="#a89e92" stroke-width="1" stroke-linecap="round"/><path d="M118 112 Q114 96 130 91 Q148 86 161 96 Q170 104 162 114 Q148 123 130 121 Q120 119 118 112 Z" fill="#3a342f"/></svg>
